<?xml version="1.0" standalone="no"?>
<!DOCTYPE svg PUBLIC "-//W3C//DTD SVG 20010904//EN"
  "http://www.w3.org/TR/2001/REC-SVG-20010904/DTD/svg10.dtd">
<svg height="960.000000pt" preserveAspectRatio="xMidYMid meet"
  version="1.0" viewBox="0 0 960.000000 960.000000" width="960.000000pt"
  xmlns="http://www.w3.org/2000/svg">
  <g fill="#000000"
    stroke="none" transform="translate(0.000000,960.000000) scale(0.100000,-0.100000)">
    <path d="M4240 9163 c0 -10 21 -49 45 -87 25 -38 45 -73 45 -78 0 -4 -17 -8
-37 -9 -102 -1 -411 -31 -508 -48 -270 -49 -625 -157 -625 -190 0 -5 27 -32
60 -61 62 -54 72 -70 43 -70 -33 0 -377 -118 -408 -140 -5 -4 -37 -17 -70 -30
-112 -44 -355 -170 -355 -183 0 -8 39 -33 86 -56 49 -24 84 -47 81 -54 -2 -6
-66 -44 -142 -83 -76 -39 -142 -78 -146 -86 -5 -9 1 -32 16 -61 14 -25 22 -52
20 -59 -3 -7 -59 -47 -125 -88 -82 -51 -120 -80 -120 -93 0 -10 27 -58 60
-107 33 -49 60 -91 60 -94 0 -2 -40 -34 -90 -71 -49 -37 -90 -73 -90 -80 0 -7
32 -43 72 -79 l72 -66 -11 -38 c-6 -20 -25 -73 -42 -117 -17 -44 -35 -96 -40
-115 -5 -19 -16 -60 -24 -90 -63 -232 -88 -461 -87 -807 0 -367 30 -691 91
-986 11 -55 18 -102 14 -105 -3 -3 -20 -1 -38 6 -45 16 -140 17 -176 2 -34
-14 -42 -31 -11 -23 11 3 20 10 20 15 0 13 140 8 164 -6 27 -15 124 -112 166
-166 19 -24 47 -58 61 -75 14 -16 31 -40 38 -52 14 -28 42 -30 64 -5 22 24 61
156 76 252 7 41 16 98 21 125 5 28 12 82 15 120 9 98 41 287 66 386 40 161
140 386 221 496 41 56 45 66 57 159 12 98 23 163 41 259 5 28 14 79 21 115 6
36 15 79 19 95 4 17 13 57 20 90 19 89 85 277 115 329 51 88 113 107 194 61
128 -73 473 -139 836 -159 55 -3 145 -8 200 -12 119 -6 964 -7 1050 0 33 3
112 8 175 11 387 21 687 76 861 158 31 15 71 27 89 27 70 0 139 -112 195 -315
9 -33 20 -73 25 -90 4 -16 18 -79 29 -140 12 -60 26 -130 31 -155 5 -25 14
-81 20 -125 6 -44 16 -104 21 -134 5 -30 9 -65 9 -78 0 -13 25 -60 56 -104
135 -194 231 -471 269 -779 41 -334 43 -347 77 -475 23 -88 50 -135 76 -135 9
0 51 43 92 96 41 53 105 125 143 160 62 59 65 64 41 64 -26 0 -26 1 -19 43 14
83 40 391 56 657 15 260 6 655 -21 875 -11 94 -24 184 -29 200 -5 17 -12 53
-16 80 -10 73 -78 311 -120 416 -64 158 -134 273 -229 374 -37 39 -60 74 -67
100 -9 38 -24 89 -56 200 -111 378 -249 634 -372 690 -63 28 -71 15 -71 -111
0 -57 -3 -104 -7 -104 -5 1 -28 28 -53 61 -144 194 -365 388 -590 518 -85 49
-214 116 -310 160 -69 32 -236 91 -257 91 -24 0 -13 -27 52 -125 63 -94 79
-132 53 -123 -7 3 -38 13 -68 23 -30 10 -64 21 -75 26 -28 12 -182 53 -290 79
-137 32 -165 38 -235 50 -36 7 -87 16 -115 21 -90 17 -356 49 -406 49 -40 0
-49 -3 -49 -17z"/>
    <path d="M3260 5768 c-161 -34 -372 -118 -410 -163 -13 -15 0 -16 186 -10 222
8 409 -4 580 -35 60 -12 172 -32 249 -46 77 -14 182 -33 234 -44 52 -10 100
-16 108 -13 17 7 17 55 -1 97 -32 78 -165 131 -491 195 -33 7 -76 17 -96 22
-46 11 -299 10 -359 -3z"/>
    <path d="M5945 5764 c-114 -26 -150 -34 -185 -40 -19 -3 -73 -17 -120 -31
-192 -56 -243 -92 -256 -179 -8 -57 1 -64 64 -52 81 15 264 48 347 63 44 7
118 21 165 29 199 37 240 40 517 40 298 0 307 1 229 42 -130 69 -233 106 -355
129 -95 19 -324 18 -406 -1z"/>
    <path d="M7625 4949 c-47 -6 -46 -6 23 -7 71 -2 93 2 50 9 -13 2 -45 1 -73 -2z"/>
    <path d="M7730 4931 c0 -4 18 -17 40 -30 39 -22 104 -89 121 -126 18 -37 59
-100 59 -90 0 29 -63 128 -116 181 -54 54 -104 85 -104 65z"/>
    <path d="M1781 4879 c-46 -42 -35 -45 13 -3 22 19 35 34 30 34 -5 0 -25 -14
-43 -31z"/>
    <path d="M1705 4789 c-11 -17 1 -21 15 -4 8 9 8 15 2 15 -6 0 -14 -5 -17 -11z"/>
    <path d="M1659 4706 c-11 -26 -19 -52 -16 -59 2 -7 10 6 17 28 7 22 17 46 23
53 5 7 7 15 4 19 -4 3 -16 -15 -28 -41z"/>
    <path d="M7950 4655 c0 -8 4 -15 10 -15 5 0 7 7 4 15 -4 8 -8 15 -10 15 -2 0
-4 -7 -4 -15z"/>
    <path d="M1620 4588 c0 -36 4 -35 14 5 4 16 2 27 -4 27 -5 0 -10 -14 -10 -32z"/>
    <path d="M1945 4610 c28 -12 47 -12 40 0 -3 6 -18 10 -33 9 -24 0 -25 -1 -7
-9z"/>
    <path d="M3540 4613 c-174 -31 -324 -80 -396 -129 -19 -13 -39 -24 -43 -24
-13 0 -116 -99 -109 -105 3 -3 42 12 86 34 100 48 258 95 376 111 182 25 432
-13 640 -97 32 -13 61 -22 64 -19 3 4 0 6 -6 6 -7 0 -12 5 -12 11 0 21 -77 81
-164 128 -102 55 -341 102 -436 84z"/>
    <path d="M5905 4611 c-167 -22 -318 -87 -414 -178 -31 -29 -53 -53 -49 -53 8
0 88 28 113 39 24 12 133 44 197 60 250 59 540 24 778 -95 46 -24 86 -41 89
-38 8 7 -42 55 -106 100 -169 121 -419 189 -608 165z"/>
    <path d="M7615 4610 c-8 -13 15 -13 35 0 12 8 11 10 -7 10 -12 0 -25 -4 -28
-10z"/>
    <path d="M7972 4600 c0 -14 2 -19 5 -12 2 6 2 18 0 25 -3 6 -5 1 -5 -13z"/>
    <path d="M2000 4600 c0 -6 7 -10 15 -10 8 0 15 2 15 4 0 2 -7 6 -15 10 -8 3
-15 1 -15 -4z"/>
    <path d="M7576 4594 c-11 -8 -16 -14 -10 -14 13 0 39 18 34 24 -3 2 -14 -2
-24 -10z"/>
    <path d="M7526 4564 c-11 -8 -16 -14 -10 -14 13 0 39 18 34 24 -3 2 -14 -2
-24 -10z"/>
    <path d="M2080 4564 c0 -4 18 -22 39 -41 53 -45 124 -155 145 -224 9 -31 24
-65 32 -75 14 -18 14 -16 8 16 -3 19 -10 39 -15 45 -5 5 -9 18 -9 29 0 31 -76
149 -128 198 -51 48 -72 63 -72 52z"/>
    <path d="M7438 4500 c-21 -21 -38 -41 -38 -45 0 -4 -8 -19 -19 -33 -40 -57
-61 -104 -60 -135 0 -18 3 -25 6 -17 25 76 67 151 121 218 50 60 44 67 -10 12z"/>
    <path d="M1600 4451 c0 -44 3 -82 8 -84 4 -3 7 33 7 79 0 46 -3 84 -7 84 -5 0
-8 -36 -8 -79z"/>
    <path d="M7993 4430 c0 -41 2 -58 4 -37 2 20 2 54 0 75 -2 20 -4 3 -4 -38z"/>
    <path d="M1618 4285 c2 -19 9 -35 14 -35 6 0 7 7 4 16 -3 9 -6 24 -6 35 0 10
-4 19 -8 19 -4 0 -6 -16 -4 -35z"/>
    <path d="M7977 4303 c-4 -3 -7 -18 -6 -32 1 -26 1 -25 10 3 9 31 7 41 -4 29z"/>
    <path d="M7298 4255 c-6 -30 -3 -43 8 -33 3 4 4 19 2 35 l-3 28 -7 -30z"/>
    <path d="M1631 4230 c0 -8 4 -24 9 -35 l9 -20 0 20 c0 11 -4 27 -9 35 -9 13
-10 13 -9 0z"/>
    <path d="M1657 4163 c-3 -5 -1 -17 4 -28 7 -17 8 -17 8 8 1 27 -4 34 -12 20z"/>
    <path d="M7912 4095 c-7 -15 -11 -30 -8 -32 7 -7 28 36 24 49 -2 6 -9 -2 -16
-17z"/>
    <path d="M1692 4059 c6 -16 12 -28 14 -26 5 5 -13 57 -20 57 -3 0 0 -14 6 -31z"/>
    <path d="M1710 4013 c1 -5 7 -19 15 -33 10 -18 14 -20 15 -8 0 23 -11 48 -21
48 -5 0 -9 -3 -9 -7z"/>
    <path d="M7872 4000 c-7 -11 -12 -25 -12 -32 1 -7 8 0 16 15 18 33 14 46 -4
17z"/>
    <path d="M1750 3935 c0 -8 4 -15 10 -15 5 0 7 7 4 15 -4 8 -8 15 -10 15 -2 0
-4 -7 -4 -15z"/>
    <path d="M7792 3857 c-56 -98 -118 -189 -189 -276 -24 -30 -41 -56 -39 -58 14
-14 193 229 251 341 24 47 41 86 37 86 -4 0 -31 -42 -60 -93z"/>
    <path d="M2405 3873 c4 -54 29 -163 45 -198 5 -11 11 -33 13 -50 5 -30 31
-111 50 -153 8 -16 7 -26 -1 -34 -21 -21 -86 -39 -163 -45 -62 -5 -88 -2 -147
17 -92 29 -139 76 -285 284 -85 120 -93 134 -109 164 -6 12 -15 22 -20 22 -27
0 127 -228 272 -401 38 -45 127 -91 195 -100 51 -7 139 1 225 19 30 7 49 7 58
0 18 -15 16 10 -7 68 -27 68 -56 169 -81 277 -12 50 -28 112 -36 137 l-13 45
4 -52z"/>
    <path d="M7206 3908 c-2 -7 -11 -44 -21 -83 -9 -38 -21 -79 -26 -90 -21 -46
-69 -206 -68 -227 1 -15 7 -6 18 27 10 28 20 57 23 65 3 8 11 33 17 55 7 22
16 49 21 60 29 65 60 205 46 205 -4 0 -8 -6 -10 -12z"/>
    <path d="M1765 3900 c3 -5 8 -10 11 -10 2 0 4 5 4 10 0 6 -5 10 -11 10 -5 0
-7 -4 -4 -10z"/>
    <path d="M7524 3485 c-16 -14 -23 -25 -16 -25 13 0 56 39 49 46 -2 2 -17 -7
-33 -21z"/>
    <path d="M7058 3440 c-13 -40 -13 -50 -3 -50 7 0 15 5 17 12 3 9 22 8 75 -5
121 -29 250 -19 321 25 50 31 32 32 -34 1 -71 -32 -135 -39 -217 -24 -118 23
-136 31 -139 62 -3 25 -5 23 -20 -21z"/>
    <path d="M2560 3359 c7 -11 14 -19 16 -16 7 7 -7 37 -17 37 -6 0 -5 -9 1 -21z"/>
    <path d="M7032 3368 c-19 -24 -63 -120 -58 -125 3 -3 10 5 16 18 6 13 18 38
28 54 30 49 39 83 14 53z"/>
    <path d="M2580 3321 c0 -5 5 -13 10 -16 6 -3 10 -2 10 4 0 5 -4 13 -10 16 -5
3 -10 2 -10 -4z"/>
    <path d="M2600 3284 c0 -5 7 -19 15 -30 8 -10 15 -14 15 -8 0 5 -7 19 -15 30
-8 10 -15 14 -15 8z"/>
    <path d="M6946 3199 c-10 -17 -16 -33 -13 -35 3 -3 12 9 21 27 21 42 15 47 -8
8z"/>
    <path d="M2677 3132 c3 -12 9 -25 14 -28 14 -8 11 10 -6 32 -13 18 -14 18 -8
-4z"/>
    <path d="M6903 3122 c-3 -12 -9 -22 -14 -22 -5 0 -9 -6 -9 -12 0 -7 -14 -33
-30 -58 -17 -25 -35 -52 -40 -60 -5 -8 -28 -41 -50 -73 -22 -32 -40 -60 -40
-63 0 -6 -30 -50 -84 -122 -21 -29 -37 -55 -34 -57 16 -16 196 247 290 424 16
29 26 56 23 59 -3 4 -8 -4 -12 -16z"/>
    <path d="M2760 2995 c0 -11 34 -70 43 -73 4 -2 7 -8 7 -13 0 -12 77 -128 125
-187 53 -67 42 -33 -18 49 -28 41 -68 100 -87 132 -19 31 -38 57 -42 57 -4 0
-8 6 -8 14 0 8 -4 18 -10 21 -5 3 -10 3 -10 0z"/>
    <path d="M3873 2834 c-11 -28 17 -127 60 -214 30 -61 61 -104 108 -152 37 -38
72 -68 78 -68 6 0 11 11 11 25 0 26 15 34 23 13 4 -10 6 -10 6 0 1 7 16 12 41
12 23 0 40 5 40 11 0 8 -15 10 -45 7 -25 -3 -45 -2 -45 3 0 5 56 9 125 9 77 0
125 -4 125 -10 0 -6 30 -10 68 -11 59 -1 64 -2 40 -12 -45 -17 -36 -38 10 -24
20 6 40 15 43 19 8 12 87 14 127 5 26 -7 32 -6 32 7 0 10 -9 16 -22 16 -12 0
-19 3 -16 6 6 5 70 -6 143 -25 50 -14 166 -20 159 -9 -3 4 -27 8 -55 8 -29 0
-49 4 -49 11 0 7 16 10 44 8 30 -3 42 0 39 7 -5 12 77 24 110 16 34 -8 17 -25
-20 -19 -44 6 -84 -5 -64 -17 16 -11 211 4 211 15 0 5 18 9 40 9 29 0 40 -4
40 -15 0 -22 136 -21 161 1 27 24 44 13 19 -13 -11 -12 -20 -29 -20 -38 0 -26
-35 -56 -80 -69 -22 -7 -41 -16 -40 -20 1 -5 -4 -13 -12 -18 -9 -6 -3 -7 17
-3 17 4 37 13 46 21 8 8 21 14 28 14 56 0 250 214 290 321 7 19 17 43 21 54
18 44 27 103 18 119 -7 12 -25 16 -80 16 -66 0 -70 -1 -65 -20 4 -16 -3 -26
-31 -43 -50 -31 -221 -84 -312 -96 -41 -6 -107 -15 -147 -21 -91 -13 -483 -13
-571 0 -37 5 -107 14 -157 20 -49 7 -99 16 -110 20 -11 5 -45 16 -75 25 -84
26 -157 64 -163 85 -3 11 0 21 7 24 6 2 -24 5 -67 5 -62 1 -79 -2 -84 -15z
m1654 -316 c-3 -8 -6 -5 -6 6 -1 11 2 17 5 13 3 -3 4 -12 1 -19z m-862 -28 c3
-5 -1 -10 -9 -10 -9 0 -16 5 -16 10 0 6 4 10 9 10 6 0 13 -4 16 -10z m812 -73
c-12 -24 -27 -27 -27 -6 0 10 31 41 36 36 3 -2 -2 -16 -9 -30z"/>
    <path d="M4138 2843 c7 -3 16 -2 19 1 4 3 -2 6 -13 5 -11 0 -14 -3 -6 -6z"/>
    <path d="M2980 2660 c0 -5 5 -10 11 -10 5 0 7 5 4 10 -3 6 -8 10 -11 10 -2 0
-4 -4 -4 -10z"/>
    <path d="M3006 2625 c4 -8 10 -15 15 -15 4 0 6 7 3 15 -4 8 -10 15 -15 15 -4
0 -6 -7 -3 -15z"/>
    <path d="M6551 2598 c-48 -69 -111 -138 -232 -253 -142 -136 -232 -205 -414
-314 -38 -23 -79 -47 -90 -54 -11 -7 -69 -44 -130 -83 -60 -39 -144 -92 -185
-117 -42 -26 -89 -58 -105 -71 -27 -22 -28 -24 -12 -40 13 -14 17 -36 17 -109
0 -71 5 -102 21 -137 l20 -45 -88 -85 c-162 -157 -374 -402 -503 -582 -18 -27
-41 -48 -49 -48 -9 0 -36 28 -61 63 -137 189 -303 381 -477 554 -51 51 -93 99
-93 108 0 9 7 30 16 47 11 20 18 66 20 131 3 75 8 103 20 111 13 10 1 21 -71
66 -47 30 -128 83 -180 117 -109 71 -275 173 -281 173 -3 0 -10 5 -17 10 -25
22 -158 102 -162 98 -2 -2 9 -12 26 -23 16 -11 29 -26 29 -32 0 -7 -1 -13 -2
-13 -4 0 -267 -68 -327 -85 -85 -23 -112 -50 -174 -177 -132 -267 -177 -458
-178 -761 l-1 -128 -68 -44 c-114 -73 -251 -198 -352 -320 -101 -123 -266
-420 -292 -527 l-6 -28 2630 0 c1876 0 2630 3 2630 11 0 38 -133 316 -192 403
-137 198 -264 329 -436 447 l-87 60 -1 142 c-1 130 -22 319 -44 392 -52 176
-79 249 -132 350 -71 139 -90 157 -194 180 -38 9 -85 20 -104 25 -19 4 -59 13
-89 19 -96 20 -131 32 -131 45 0 12 52 56 66 56 3 0 53 37 111 82 93 73 267
246 311 310 9 13 30 38 47 56 37 42 49 62 36 62 -6 0 -23 -19 -40 -42z m-2263
-1562 c57 -30 74 -117 31 -162 -26 -27 -39 -31 -39 -9 0 9 -6 12 -17 9 -10 -3
-6 2 10 11 22 13 27 22 27 57 0 48 -19 67 -67 68 -52 0 -85 -69 -48 -100 16
-13 21 -60 6 -60 -26 0 -53 39 -58 83 -5 43 -3 49 30 82 39 39 78 45 125 21z
m1145 -7 c44 -45 50 -117 12 -154 -13 -14 -29 -25 -35 -25 -16 0 -12 40 5 46
22 9 20 83 -2 100 -25 18 -78 17 -97 -2 -16 -16 -21 -59 -10 -88 7 -19 21 -21
27 -3 2 6 3 4 2 -5 -2 -10 2 -21 8 -25 6 -4 0 -10 -14 -15 -20 -8 -28 -5 -46
17 -42 49 -27 128 32 163 25 16 99 9 118 -9z m-1211 -123 c2 -19 0 -32 -4 -30
-8 5 -12 64 -4 64 2 0 6 -15 8 -34z m1165 -3 c-3 -10 -5 -4 -5 12 0 17 2 24 5
18 2 -7 2 -21 0 -30z m-1120 5 c-3 -8 -6 -5 -6 6 -1 11 2 17 5 13 3 -3 4 -12
1 -19z m1087 -84 c23 -9 20 -23 -4 -17 -11 3 -20 9 -20 14 0 11 3 11 24 3z
m-1087 -486 c-2 -13 -4 -3 -4 22 0 25 2 35 4 23 2 -13 2 -33 0 -45z"/>
    <path d="M3045 2580 c10 -11 20 -18 23 -15 7 6 -18 35 -31 35 -5 0 -2 -9 8
-20z"/>
    <path d="M3190 2415 c19 -22 39 -43 44 -46 5 -4 35 -32 67 -63 31 -31 62 -56
68 -56 5 0 -15 24 -46 53 -31 28 -72 68 -92 87 -56 54 -80 68 -41 25z"/>
    <path d="M5085 2420 c27 -12 35 -12 35 0 0 6 -12 10 -27 9 -25 0 -26 -1 -8 -9z"/>
    <path d="M4142 2400 c-8 -13 -8 -20 -2 -20 6 0 20 -9 32 -20 12 -11 26 -20 30
-20 5 0 4 9 -2 20 -6 11 -17 20 -25 20 -7 0 -15 9 -17 20 l-3 21 -13 -21z"/>
    <path d="M4188 2393 c6 -2 18 -2 25 0 6 3 1 5 -13 5 -14 0 -19 -2 -12 -5z"/>
    <path d="M4225 2331 c7 -13 64 -41 82 -41 30 0 10 19 -27 25 -22 4 -40 11 -40
16 0 5 -5 9 -11 9 -5 0 -8 -4 -4 -9z"/>
    <path d="M5198 2253 c7 -3 16 -2 19 1 4 3 -2 6 -13 5 -11 0 -14 -3 -6 -6z"/>
    <path d="M3381 2237 c2 -1 13 -9 24 -17 19 -14 19 -14 6 3 -7 9 -18 17 -24 17
-6 0 -8 -1 -6 -3z"/>
    <path d="M3440 2190 c0 -6 7 -10 15 -10 8 0 15 2 15 4 0 2 -7 6 -15 10 -8 3
-15 1 -15 -4z"/>
    <path d="M5276 1635 c-11 -8 -15 -15 -9 -15 6 0 16 7 23 15 16 19 11 19 -14 0z"/>
    <path d="M4317 1629 c7 -7 15 -10 18 -7 3 3 -2 9 -12 12 -14 6 -15 5 -6 -5z"/>
    <path d="M4357 1609 c7 -7 15 -10 18 -7 3 3 -2 9 -12 12 -14 6 -15 5 -6 -5z"/>
    <path d="M5196 1595 c-11 -8 -16 -15 -10 -15 5 0 18 7 28 15 11 8 16 15 10 15
-5 0 -18 -7 -28 -15z"/>
    <path d="M4413 1583 c9 -2 17 -9 17 -14 0 -5 10 -9 23 -9 20 0 20 1 -7 15 -15
8 -33 14 -40 14 -6 -1 -3 -3 7 -6z"/>
    <path d="M5148 1563 c7 -3 16 -2 19 1 4 3 -2 6 -13 5 -11 0 -14 -3 -6 -6z"/>
    <path d="M4493 1543 c9 -2 25 -2 35 0 9 3 1 5 -18 5 -19 0 -27 -2 -17 -5z"/>
    <path d="M5083 1543 c9 -2 23 -2 30 0 6 3 -1 5 -18 5 -16 0 -22 -2 -12 -5z"/>
    <path d="M4580 1518 c62 -15 369 -22 395 -9 11 6 34 12 50 15 17 2 -6 2 -50
-1 -97 -5 -251 -4 -360 2 -73 4 -76 3 -35 -7z"/>
  </g>
  <metadata>
    Created by potrace 1.14, written by Peter Selinger 2001-2017
  </metadata>
</svg>
